<?xml version="1.0" encoding="utf-8"?>
<!-- Generator: Adobe Illustrator 16.0.0, SVG Export Plug-In . SVG Version: 6.00 Build 0)  -->
<!DOCTYPE svg PUBLIC "-//W3C//DTD SVG 1.1//EN" "http://www.w3.org/Graphics/SVG/1.1/DTD/svg11.dtd">
<svg version="1.1" id="圖層_1" xmlns="http://www.w3.org/2000/svg" xmlns:xlink="http://www.w3.org/1999/xlink" x="0px" y="0px"
	 width="200px" height="60px" viewBox="-85 -15 200 60" enable-background="new -85 -15 200 60" xml:space="preserve">
<g id="GOMORE_x5F_LOGO" display="none">
	<g display="inline">
		<g>
			<path fill="#A28880" d="M102.859,18.71v1.761c-0.088,0.053-0.188,0.102-0.299,0.141c-0.109,0.041-0.226,0.076-0.346,0.104
				c-0.119,0.029-0.24,0.051-0.361,0.063c-0.125,0.015-0.238,0.021-0.347,0.021c-0.303,0-0.573-0.051-0.812-0.15
				c-0.236-0.102-0.437-0.238-0.6-0.41c-0.164-0.172-0.287-0.37-0.373-0.598c-0.086-0.227-0.129-0.467-0.129-0.719
				c0-0.266,0.047-0.513,0.139-0.74c0.094-0.229,0.221-0.428,0.385-0.597c0.163-0.167,0.357-0.3,0.587-0.396
				s0.479-0.145,0.753-0.145c0.329,0,0.6,0.042,0.807,0.124c0.209,0.083,0.385,0.196,0.524,0.34l-0.345,0.369
				c-0.146-0.142-0.303-0.239-0.469-0.295c-0.164-0.056-0.338-0.082-0.52-0.082c-0.205,0-0.391,0.037-0.555,0.112
				c-0.164,0.074-0.308,0.178-0.424,0.305c-0.117,0.128-0.209,0.277-0.272,0.452c-0.063,0.173-0.095,0.356-0.095,0.552
				c0,0.202,0.035,0.391,0.104,0.563c0.07,0.174,0.167,0.324,0.292,0.453c0.124,0.127,0.271,0.227,0.438,0.299
				c0.168,0.072,0.353,0.109,0.551,0.109c0.171,0,0.334-0.017,0.486-0.049c0.153-0.031,0.283-0.078,0.392-0.139v-0.993h-0.792V18.71
				H102.859L102.859,18.71z"/>
			<path fill="#A28880" d="M105.508,20.799c-0.273,0-0.523-0.048-0.752-0.145c-0.229-0.096-0.424-0.229-0.588-0.396
				c-0.163-0.168-0.291-0.365-0.384-0.595s-0.138-0.476-0.138-0.741s0.045-0.513,0.138-0.74c0.093-0.229,0.221-0.428,0.384-0.597
				c0.163-0.167,0.359-0.3,0.588-0.396s0.479-0.144,0.752-0.144c0.271,0,0.521,0.048,0.75,0.144c0.23,0.096,0.426,0.229,0.588,0.396
				c0.164,0.168,0.291,0.367,0.385,0.597c0.093,0.229,0.138,0.475,0.138,0.74s-0.045,0.514-0.138,0.741
				c-0.094,0.229-0.221,0.427-0.385,0.595c-0.162,0.168-0.357,0.301-0.588,0.396C106.029,20.751,105.779,20.799,105.508,20.799z
				 M105.508,20.346c0.205,0,0.391-0.039,0.555-0.113c0.164-0.076,0.307-0.178,0.424-0.307c0.117-0.127,0.207-0.277,0.271-0.451
				c0.064-0.172,0.096-0.356,0.096-0.552c0-0.196-0.03-0.379-0.096-0.552c-0.064-0.174-0.154-0.324-0.271-0.452
				s-0.26-0.229-0.424-0.306c-0.166-0.075-0.35-0.111-0.555-0.111s-0.391,0.037-0.556,0.111c-0.165,0.076-0.306,0.179-0.425,0.306
				c-0.115,0.128-0.207,0.278-0.271,0.452s-0.096,0.357-0.096,0.552c0,0.195,0.03,0.38,0.096,0.552
				c0.063,0.174,0.155,0.324,0.271,0.451c0.119,0.129,0.26,0.229,0.425,0.307C105.117,20.307,105.303,20.346,105.508,20.346z"/>
			<path fill="#A28880" d="M108.154,17.137h0.722l1.136,2.703h0.021l1.125-2.703h0.723v3.571h-0.485v-2.935h-0.011l-1.204,2.936
				h-0.322l-1.205-2.936h-0.012v2.936h-0.484v-3.572H108.154z"/>
			<path fill="#A28880" d="M114.525,20.799c-0.271,0-0.521-0.048-0.752-0.145c-0.228-0.096-0.424-0.229-0.588-0.396
				c-0.162-0.168-0.289-0.365-0.383-0.595c-0.093-0.229-0.138-0.476-0.138-0.741s0.045-0.513,0.138-0.74
				c0.094-0.229,0.221-0.428,0.383-0.597c0.164-0.167,0.36-0.3,0.588-0.396c0.229-0.096,0.479-0.144,0.752-0.144
				c0.273,0,0.523,0.048,0.752,0.144s0.425,0.229,0.588,0.396c0.162,0.168,0.291,0.367,0.384,0.597
				c0.092,0.229,0.138,0.475,0.138,0.74s-0.046,0.514-0.138,0.741c-0.093,0.229-0.222,0.427-0.384,0.595
				c-0.163,0.168-0.358,0.301-0.588,0.396C115.05,20.751,114.799,20.799,114.525,20.799z M114.525,20.346
				c0.205,0,0.391-0.039,0.556-0.113c0.165-0.076,0.306-0.178,0.423-0.307c0.119-0.127,0.209-0.277,0.271-0.451
				c0.063-0.172,0.097-0.356,0.097-0.552c0-0.196-0.032-0.379-0.097-0.552c-0.063-0.174-0.153-0.324-0.271-0.452
				c-0.117-0.128-0.258-0.229-0.423-0.306c-0.165-0.075-0.351-0.111-0.556-0.111s-0.39,0.037-0.555,0.111
				c-0.164,0.076-0.306,0.179-0.424,0.306c-0.117,0.128-0.208,0.278-0.271,0.452c-0.063,0.173-0.096,0.357-0.096,0.552
				c0,0.195,0.032,0.38,0.096,0.552c0.063,0.174,0.154,0.324,0.271,0.451c0.118,0.129,0.26,0.229,0.424,0.307
				C114.137,20.307,114.32,20.346,114.525,20.346z"/>
			<path fill="#A28880" d="M117.21,17.137h1.256c0.229,0,0.417,0.031,0.563,0.094c0.147,0.063,0.266,0.142,0.351,0.238
				c0.087,0.094,0.146,0.202,0.179,0.321c0.034,0.12,0.051,0.233,0.051,0.345c0,0.115-0.02,0.225-0.061,0.331
				c-0.039,0.106-0.098,0.202-0.174,0.288c-0.076,0.085-0.168,0.158-0.277,0.217c-0.111,0.059-0.23,0.094-0.365,0.107l1.014,1.63
				h-0.604l-0.908-1.574h-0.539v1.574h-0.484L117.21,17.137L117.21,17.137z M117.693,18.71h0.637c0.094,0,0.188-0.007,0.279-0.022
				s0.174-0.043,0.246-0.084c0.071-0.039,0.131-0.098,0.174-0.174c0.045-0.076,0.066-0.175,0.066-0.296
				c0-0.12-0.021-0.219-0.066-0.294c-0.043-0.074-0.103-0.133-0.174-0.174c-0.072-0.04-0.154-0.068-0.246-0.083
				c-0.094-0.015-0.187-0.022-0.279-0.022h-0.637V18.71z"/>
			<path fill="#A28880" d="M120.418,17.137h2.307v0.453h-1.822v1.064h1.693v0.455h-1.693v1.145h1.912v0.454h-2.396V17.137
				L120.418,17.137z"/>
			<path fill="#A28880" d="M99.782,23.213h0.721l1.136,2.704h0.021l1.125-2.704h0.722v3.572h-0.484V23.85h-0.011l-1.204,2.936
				h-0.322l-1.207-2.936h-0.01v2.936h-0.484L99.782,23.213L99.782,23.213z"/>
			<path fill="#A28880" d="M105.633,23.213h0.439l1.527,3.572h-0.563l-0.358-0.883h-1.699l-0.354,0.883h-0.563L105.633,23.213z
				 M106.501,25.479l-0.666-1.639h-0.01l-0.677,1.639H106.501z"/>
			<path fill="#A28880" d="M108.938,23.667h-1.149v-0.454h2.785v0.454h-1.15v3.118h-0.483v-3.118H108.938z"/>
			<path fill="#A28880" d="M111.213,23.213h2.305v0.454h-1.822v1.065h1.695v0.453h-1.695v1.146h1.912v0.454h-2.396L111.213,23.213
				L111.213,23.213z"/>
			<path fill="#A28880" d="M114.421,23.213h1.256c0.228,0,0.417,0.031,0.564,0.096c0.147,0.061,0.265,0.141,0.351,0.235
				c0.088,0.097,0.146,0.204,0.18,0.323s0.049,0.234,0.049,0.346c0,0.114-0.02,0.225-0.061,0.331
				c-0.039,0.104-0.098,0.201-0.174,0.287c-0.075,0.086-0.168,0.157-0.277,0.217c-0.108,0.06-0.229,0.095-0.365,0.108l1.015,1.629
				h-0.604l-0.908-1.573h-0.539v1.573h-0.484L114.421,23.213L114.421,23.213z M114.904,24.788h0.637
				c0.094,0,0.188-0.007,0.279-0.022s0.174-0.043,0.246-0.084c0.072-0.039,0.129-0.098,0.174-0.173
				c0.044-0.077,0.066-0.175,0.066-0.296s-0.022-0.22-0.066-0.295c-0.045-0.076-0.102-0.135-0.174-0.174
				c-0.072-0.041-0.154-0.069-0.246-0.083c-0.094-0.015-0.188-0.022-0.279-0.022h-0.637V24.788z"/>
			<path fill="#A28880" d="M117.629,23.213h0.482v3.572h-0.482V23.213z"/>
			<path fill="#A28880" d="M120.275,23.213h0.438l1.529,3.572h-0.565l-0.357-0.883h-1.699l-0.354,0.883h-0.564L120.275,23.213z
				 M121.145,25.479l-0.666-1.639h-0.011l-0.676,1.639H121.145z"/>
			<path fill="#A28880" d="M122.834,23.213h0.484v3.118h1.639v0.454h-2.123V23.213L122.834,23.213z"/>
			<path fill="#A28880" d="M100.563,29.746h-1.149v-0.455h2.786v0.455h-1.151v3.117h-0.483L100.563,29.746L100.563,29.746z"/>
			<path fill="#A28880" d="M102.838,29.291h2.307v0.455h-1.82v1.063h1.693v0.455h-1.693v1.146h1.91v0.454h-2.396L102.838,29.291
				L102.838,29.291z"/>
			<path fill="#A28880" d="M108.534,30.063c-0.103-0.131-0.229-0.23-0.384-0.303c-0.155-0.072-0.314-0.105-0.479-0.105
				c-0.2,0-0.385,0.037-0.547,0.113c-0.163,0.074-0.304,0.18-0.42,0.312c-0.115,0.131-0.205,0.284-0.271,0.462
				c-0.064,0.178-0.096,0.365-0.096,0.566c0,0.188,0.029,0.367,0.09,0.535c0.063,0.168,0.148,0.315,0.264,0.443
				s0.252,0.229,0.418,0.303c0.164,0.074,0.353,0.111,0.561,0.111c0.205,0,0.385-0.041,0.54-0.126
				c0.154-0.083,0.285-0.202,0.394-0.354l0.41,0.31c-0.027,0.037-0.076,0.09-0.144,0.159c-0.065,0.068-0.155,0.138-0.269,0.207
				c-0.11,0.068-0.244,0.129-0.399,0.181c-0.156,0.054-0.337,0.078-0.543,0.078c-0.283,0-0.536-0.054-0.765-0.161
				c-0.227-0.107-0.42-0.249-0.578-0.423c-0.162-0.177-0.282-0.373-0.366-0.595c-0.084-0.221-0.125-0.442-0.125-0.668
				c0-0.275,0.045-0.53,0.137-0.764c0.089-0.234,0.218-0.438,0.379-0.605c0.164-0.17,0.359-0.303,0.589-0.395
				c0.229-0.096,0.479-0.142,0.758-0.142c0.233,0,0.467,0.046,0.692,0.137c0.228,0.091,0.412,0.229,0.558,0.418L108.534,30.063z"/>
			<path fill="#A28880" d="M109.725,29.291h0.484v1.482h1.852v-1.482h0.483v3.57h-0.483v-1.633h-1.852v1.633h-0.484V29.291z"/>
			<path fill="#A28880" d="M113.588,29.291h0.635l1.969,2.936h0.011v-2.936h0.485v3.57h-0.615l-1.987-2.937h-0.011v2.937h-0.484
				L113.588,29.291L113.588,29.291z"/>
			<path fill="#A28880" d="M119.369,32.953c-0.271,0-0.523-0.047-0.753-0.145c-0.228-0.096-0.425-0.228-0.587-0.396
				c-0.163-0.168-0.291-0.367-0.383-0.597c-0.095-0.229-0.142-0.476-0.142-0.74c0-0.268,0.047-0.514,0.142-0.742
				c0.092-0.229,0.22-0.428,0.383-0.596c0.162-0.168,0.359-0.301,0.587-0.395c0.229-0.098,0.479-0.145,0.753-0.145
				c0.271,0,0.521,0.047,0.752,0.145c0.229,0.096,0.423,0.229,0.587,0.395c0.163,0.168,0.291,0.367,0.384,0.596
				c0.092,0.229,0.139,0.477,0.139,0.742s-0.047,0.513-0.139,0.74c-0.093,0.229-0.221,0.429-0.384,0.597s-0.358,0.301-0.587,0.396
				C119.891,32.904,119.641,32.953,119.369,32.953z M119.369,32.499c0.205,0,0.389-0.038,0.555-0.112
				c0.164-0.076,0.305-0.178,0.424-0.307c0.117-0.127,0.207-0.277,0.271-0.451c0.063-0.172,0.096-0.355,0.096-0.552
				c0-0.194-0.031-0.38-0.096-0.552c-0.064-0.174-0.154-0.325-0.271-0.453c-0.119-0.127-0.26-0.229-0.424-0.305
				c-0.166-0.076-0.35-0.113-0.555-0.113s-0.391,0.037-0.555,0.113s-0.307,0.178-0.424,0.305c-0.119,0.128-0.209,0.279-0.272,0.453
				c-0.063,0.172-0.097,0.356-0.097,0.552c0,0.194,0.033,0.38,0.097,0.552c0.063,0.174,0.153,0.324,0.272,0.451
				c0.117,0.13,0.26,0.23,0.424,0.307C118.979,32.462,119.163,32.499,119.369,32.499z"/>
			<path fill="#A28880" d="M122.052,29.291h0.485v3.117h1.639v0.455h-2.124V29.291z"/>
			<path fill="#A28880" d="M126.436,32.953c-0.271,0-0.522-0.047-0.752-0.145c-0.228-0.096-0.424-0.228-0.588-0.396
				c-0.162-0.168-0.291-0.367-0.383-0.597c-0.092-0.229-0.138-0.476-0.138-0.74c0-0.268,0.046-0.514,0.138-0.742
				s0.221-0.428,0.383-0.596c0.164-0.168,0.36-0.301,0.588-0.395c0.229-0.098,0.479-0.145,0.752-0.145
				c0.273,0,0.523,0.047,0.752,0.145c0.229,0.096,0.426,0.229,0.588,0.395c0.162,0.168,0.291,0.367,0.384,0.596
				c0.094,0.229,0.139,0.477,0.139,0.742s-0.046,0.513-0.139,0.74c-0.093,0.229-0.222,0.429-0.384,0.597s-0.358,0.301-0.588,0.396
				C126.959,32.904,126.708,32.953,126.436,32.953z M126.436,32.499c0.205,0,0.391-0.038,0.556-0.112
				c0.163-0.076,0.307-0.178,0.424-0.307c0.117-0.127,0.207-0.277,0.271-0.451c0.063-0.172,0.098-0.355,0.098-0.552
				c0-0.194-0.032-0.38-0.098-0.552c-0.063-0.174-0.153-0.325-0.271-0.453c-0.117-0.127-0.261-0.229-0.424-0.305
				c-0.165-0.076-0.351-0.113-0.556-0.113s-0.391,0.037-0.555,0.113s-0.305,0.178-0.424,0.305c-0.117,0.128-0.208,0.279-0.271,0.453
				c-0.063,0.172-0.096,0.356-0.096,0.552c0,0.194,0.031,0.38,0.096,0.552c0.063,0.174,0.154,0.324,0.271,0.451
				c0.119,0.13,0.26,0.23,0.424,0.307C126.045,32.462,126.23,32.499,126.436,32.499z"/>
			<path fill="#A28880" d="M132.16,30.865v1.761c-0.086,0.054-0.186,0.101-0.297,0.142c-0.111,0.039-0.228,0.074-0.346,0.104
				c-0.119,0.027-0.24,0.049-0.363,0.063c-0.121,0.014-0.237,0.021-0.346,0.021c-0.304,0-0.572-0.05-0.81-0.149
				c-0.238-0.103-0.438-0.238-0.601-0.41c-0.164-0.17-0.289-0.369-0.375-0.597c-0.084-0.228-0.127-0.467-0.127-0.719
				c0-0.267,0.045-0.515,0.139-0.742c0.093-0.229,0.22-0.428,0.383-0.596c0.163-0.169,0.357-0.302,0.588-0.396
				c0.229-0.098,0.479-0.145,0.751-0.145c0.33,0,0.601,0.041,0.808,0.123c0.209,0.082,0.385,0.195,0.524,0.34l-0.344,0.369
				c-0.146-0.143-0.304-0.24-0.47-0.295c-0.164-0.057-0.338-0.084-0.521-0.084c-0.204,0-0.39,0.037-0.554,0.113
				c-0.165,0.074-0.307,0.178-0.424,0.305s-0.209,0.277-0.271,0.451c-0.064,0.174-0.096,0.356-0.096,0.553
				c0,0.203,0.033,0.39,0.104,0.563c0.071,0.174,0.17,0.324,0.293,0.453c0.125,0.129,0.271,0.229,0.438,0.301
				c0.168,0.071,0.353,0.107,0.55,0.107c0.171,0,0.334-0.016,0.487-0.049c0.151-0.03,0.282-0.078,0.391-0.137V31.32h-0.793v-0.455
				H132.16L132.16,30.865z"/>
			<path fill="#A28880" d="M134.012,31.339l-1.352-2.048h0.621l0.973,1.568l1.005-1.568h0.591l-1.354,2.048v1.522h-0.484V31.339
				L134.012,31.339z"/>
		</g>
		<path fill="#A28880" d="M96.538,16.73H80V33.27h16.538V16.73z M95.096,23.35c-3.463-1.429-3.197,4.521-6.846,4.773
			c-3.344,0.164-3.375-5.997-6.779-4.788c-0.267-1.005,1.301-1.532,1.813-1.298c2.068,0.623,2.992,4.711,4.828,4.818
			c2.548,0.193,3.191-5.994,6.371-4.658C94.861,22.402,95.111,22.781,95.096,23.35z M95.292,26.404c0-0.945-0.759-1.717-1.688-1.717
			s-1.688,0.772-1.688,1.717c0,0.947,0.759,1.719,1.688,1.719S95.292,27.352,95.292,26.404L95.292,26.404z M93.604,27.288
			c-0.478,0-0.867-0.396-0.867-0.884c0-0.485,0.39-0.881,0.867-0.881c0.479,0,0.867,0.396,0.867,0.881
			C94.471,26.893,94.082,27.288,93.604,27.288z M84.623,26.404c0-0.945-0.758-1.717-1.688-1.717s-1.688,0.772-1.688,1.717
			c0,0.947,0.759,1.719,1.688,1.719C83.864,28.123,84.623,27.352,84.623,26.404L84.623,26.404z M82.934,27.288
			c-0.479,0-0.867-0.396-0.867-0.884c0-0.485,0.389-0.881,0.867-0.881s0.868,0.396,0.868,0.881
			C83.802,26.893,83.412,27.288,82.934,27.288z M88.27,21.874c-0.931,0-1.688,0.771-1.688,1.718s0.757,1.719,1.688,1.719
			c0.93,0,1.688-0.772,1.688-1.719C89.958,22.646,89.199,21.874,88.27,21.874z"/>
	</g>
</g>
<g id="GMZINC" display="none">
	<g display="inline">
		<polygon fill="#A28880" points="116.234,12 99.766,12 99.766,24.818 108,30.246 116.234,24.818 		"/>
		<path fill="#FFFFFF" d="M101.135,13.369v10.714L108,28.607l6.867-4.524V13.369H101.135z M108.027,26.832l-5.453-3.585v-1.282
			L108,18.514v-1.703l-5.426,3.52v-5.548h10.906v3.543l-5.489,3.538V23.5l5.489-3.547v3.293L108.027,26.832z"/>
		<path fill="#A28880" d="M97.279,37.508c-0.391,0.205-0.795,0.352-1.219,0.441c-0.424,0.091-0.854,0.135-1.295,0.135
			c-0.469,0-0.899-0.072-1.295-0.221c-0.396-0.146-0.736-0.355-1.023-0.629c-0.288-0.274-0.514-0.605-0.674-0.996
			c-0.162-0.389-0.242-0.822-0.242-1.303c0-0.481,0.08-0.914,0.242-1.306c0.16-0.389,0.386-0.721,0.674-0.993
			c0.287-0.273,0.628-0.484,1.023-0.632c0.396-0.147,0.826-0.221,1.295-0.221c0.479,0,0.922,0.06,1.324,0.174
			c0.404,0.114,0.758,0.313,1.063,0.599l-0.93,1.016c-0.182-0.188-0.384-0.328-0.609-0.424c-0.228-0.096-0.508-0.146-0.848-0.146
			c-0.281,0-0.537,0.05-0.766,0.146s-0.424,0.229-0.587,0.401c-0.165,0.173-0.29,0.378-0.377,0.613
			c-0.088,0.235-0.132,0.493-0.132,0.771c0,0.282,0.044,0.541,0.132,0.774c0.087,0.233,0.212,0.438,0.377,0.61
			c0.163,0.17,0.358,0.306,0.587,0.402c0.229,0.096,0.484,0.143,0.766,0.143c0.289,0,0.536-0.031,0.745-0.098
			c0.208-0.063,0.375-0.131,0.5-0.197v-0.973h-1.075v-1.221h2.344V37.508L97.279,37.508z"/>
		<path fill="#A28880" d="M97.973,31.938h1.998l1.379,3.912h0.018l1.388-3.912h1.989v5.994h-1.321v-4.597h-0.016l-1.575,4.597
			h-1.007l-1.517-4.597h-0.017v4.597h-1.319V31.938L97.973,31.938z"/>
		<path fill="#A28880" d="M105.395,36.713l3.039-3.605h-2.928v-1.168h4.527v1.168l-2.979,3.605h3.082v1.221h-4.742V36.713
			L105.395,36.713z"/>
		<path fill="#A28880" d="M110.766,31.938h1.32v5.994h-1.32V31.938z"/>
		<path fill="#A28880" d="M112.736,31.938h1.797l2.546,4.166h0.019v-4.166h1.32v5.994h-1.729l-2.615-4.267h-0.018v4.267h-1.32
			V31.938L112.736,31.938z"/>
		<path fill="#A28880" d="M123.311,33.496c-0.131-0.158-0.289-0.277-0.479-0.363c-0.188-0.084-0.408-0.127-0.655-0.127
			c-0.249,0-0.479,0.047-0.689,0.143c-0.211,0.098-0.396,0.23-0.551,0.404c-0.154,0.172-0.276,0.377-0.363,0.612
			c-0.088,0.237-0.133,0.494-0.133,0.771c0,0.283,0.047,0.541,0.133,0.773c0.087,0.234,0.207,0.438,0.359,0.611
			c0.152,0.172,0.332,0.306,0.537,0.402c0.207,0.096,0.43,0.145,0.666,0.145c0.27,0,0.512-0.057,0.721-0.17s0.379-0.271,0.517-0.475
			l1.101,0.821c-0.255,0.354-0.576,0.617-0.966,0.787c-0.389,0.168-0.79,0.253-1.202,0.253c-0.47,0-0.898-0.072-1.296-0.221
			c-0.395-0.145-0.735-0.356-1.022-0.631c-0.288-0.271-0.514-0.604-0.674-0.994c-0.16-0.389-0.24-0.823-0.24-1.305
			c0-0.479,0.08-0.914,0.24-1.305c0.162-0.389,0.387-0.719,0.674-0.992c0.287-0.275,0.629-0.486,1.022-0.632
			c0.396-0.146,0.827-0.221,1.296-0.221c0.17,0,0.346,0.017,0.529,0.047c0.184,0.032,0.364,0.08,0.542,0.147
			c0.179,0.067,0.349,0.158,0.513,0.271c0.163,0.112,0.311,0.252,0.439,0.415L123.311,33.496z"/>
	</g>
</g>
<g>
	<g>
		<path fill="#3F4550" d="M-64.623,23.648c0,1.974-0.316,3.633-0.936,4.952c-0.633,1.328-1.431,2.407-2.394,3.205
			c-0.97,0.805-2.035,1.382-3.204,1.713c-1.169,0.351-2.297,0.509-3.364,0.509h-9.745V-4.055h8.638c1.087,0,2.201,0.138,3.343,0.427
			c1.156,0.288,2.208,0.783,3.163,1.484c0.95,0.695,1.733,1.651,2.338,2.848c0.62,1.212,0.922,2.71,0.922,4.554
			c0,1.292-0.159,2.414-0.468,3.37c-0.302,0.949-0.715,1.774-1.224,2.476c-0.509,0.694-1.087,1.272-1.747,1.719
			c-0.646,0.448-1.32,0.799-2.001,1.046v0.11c0.681,0.152,1.41,0.44,2.207,0.867c0.785,0.433,1.514,1.031,2.181,1.802
			c0.661,0.77,1.211,1.732,1.644,2.902C-64.836,20.719-64.623,22.08-64.623,23.648z M-69.409,5.821c0-1.251-0.193-2.303-0.564-3.163
			c-0.372-0.859-0.881-1.541-1.5-2.063c-0.632-0.523-1.348-0.88-2.132-1.106c-0.784-0.214-1.595-0.317-2.414-0.317h-4.684v13.452
			h4.787c0.79,0,1.567-0.13,2.345-0.378c0.777-0.241,1.465-0.646,2.07-1.197c0.605-0.563,1.114-1.265,1.5-2.117
			C-69.602,8.077-69.409,7.039-69.409,5.821z M-68.33,23.415c0-1.432-0.219-2.642-0.646-3.619c-0.433-0.989-0.997-1.787-1.671-2.379
			c-0.681-0.611-1.444-1.06-2.284-1.348c-0.853-0.288-1.664-0.433-2.449-0.433h-5.33v15.172h5.33c0.977,0,1.886-0.146,2.738-0.434
			c0.859-0.289,1.616-0.729,2.263-1.333c0.647-0.605,1.148-1.383,1.499-2.312C-68.516,25.809-68.33,24.702-68.33,23.415z"/>
		<path fill="#3F4550" d="M-60.262,34.041V-4.047h3.768v38.088H-60.262z"/>
		<path fill="#3F4550" d="M-51.631,34.041V-4.047h15.33v3.335h-11.678v13.343h10.922v3.232h-10.922v14.786h12.215v3.392H-51.631z"/>
		<path fill="#3F4550" d="M-14.773,24.295c0,1.692-0.249,3.191-0.758,4.498c-0.501,1.32-1.189,2.435-2.07,3.343
			c-0.874,0.907-1.905,1.616-3.087,2.092c-1.184,0.479-2.449,0.734-3.769,0.734c-1.939,0-3.728-0.419-5.365-1.237
			c-1.623-0.825-2.943-1.919-3.947-3.28l2.311-2.642c0.825,1.183,1.863,2.104,3.122,2.745c1.251,0.646,2.524,0.982,3.811,0.982
			c1.719,0,3.17-0.618,4.332-1.836c1.169-1.225,1.754-2.972,1.754-5.22c0-1.073-0.186-2.022-0.537-2.848
			c-0.358-0.826-0.846-1.555-1.458-2.209c-0.605-0.646-1.3-1.224-2.07-1.726c-0.77-0.495-1.582-0.963-2.441-1.39
			c-1.039-0.508-2.029-1.071-2.958-1.704c-0.928-0.62-1.753-1.35-2.455-2.174c-0.701-0.826-1.265-1.802-1.691-2.93
			c-0.434-1.142-0.647-2.449-0.647-3.962c0-1.761,0.275-3.288,0.805-4.602c0.544-1.314,1.272-2.399,2.181-3.28
			c0.907-0.882,1.946-1.527,3.095-1.967c1.148-0.427,2.346-0.646,3.604-0.646c1.733,0,3.274,0.296,4.664,0.888
			c1.375,0.584,2.531,1.512,3.466,2.771l-2.318,2.627c-0.723-1.03-1.561-1.774-2.524-2.221c-0.976-0.447-2.036-0.682-3.177-0.682
			c-0.757,0-1.499,0.139-2.235,0.407c-0.736,0.268-1.383,0.693-1.96,1.265c-0.578,0.57-1.045,1.314-1.402,2.207
			c-0.358,0.896-0.537,1.955-0.537,3.165c0,1.079,0.151,2.021,0.482,2.799c0.315,0.791,0.763,1.492,1.32,2.111
			c0.557,0.604,1.204,1.135,1.94,1.609c0.729,0.468,1.492,0.895,2.283,1.293c1.012,0.503,2.001,1.072,2.985,1.719
			c0.99,0.646,1.877,1.404,2.668,2.27c0.784,0.854,1.418,1.864,1.878,3.013C-15.008,21.42-14.773,22.769-14.773,24.295z"/>
		<path fill="#B3BAC2" d="M11.912,15.051c0,3.13-0.33,5.861-0.969,8.241c-0.646,2.365-1.575,4.346-2.799,5.941
			c-1.21,1.603-2.668,2.793-4.388,3.611c-1.699,0.805-3.59,1.203-5.667,1.203h-8.184V-4.041h8.239c2.078,0,3.961,0.399,5.674,1.21
			C5.516-2.025,6.974-0.815,8.17,0.801c1.203,1.617,2.132,3.618,2.779,6.005C11.582,9.172,11.912,11.93,11.912,15.051z
			 M8.198,15.051c0-2.694-0.261-5.047-0.777-7.042C6.904,6.015,6.183,4.364,5.268,3.071C4.36,1.771,3.28,0.801,2.042,0.154
			c-1.231-0.652-2.579-0.976-4.01-0.976h-4.408v31.637h4.408c1.438,0,2.779-0.322,4.01-0.977c1.238-0.646,2.318-1.609,3.226-2.916
			c0.915-1.301,1.636-2.93,2.153-4.904C7.937,20.037,8.198,17.721,8.198,15.051z"/>
		<path fill="#B3BAC2" d="M16.011,34.041V-4.047h15.337v3.335H19.67v13.343h10.922v3.232H19.67v14.786h12.215v3.392H16.011z"/>
		<path fill="#B3BAC2" d="M52.861,24.295c0,1.692-0.248,3.191-0.756,4.498c-0.49,1.32-1.184,2.435-2.064,3.343
			c-0.879,0.907-1.904,1.616-3.086,2.092c-1.184,0.479-2.457,0.734-3.77,0.734c-1.934,0-3.723-0.419-5.354-1.237
			c-1.635-0.825-2.963-1.919-3.967-3.28l2.318-2.642c0.818,1.183,1.863,2.104,3.115,2.745c1.258,0.646,2.531,0.982,3.824,0.982
			c1.719,0,3.164-0.618,4.332-1.836c1.17-1.225,1.748-2.972,1.748-5.22c0-1.073-0.18-2.022-0.537-2.848
			c-0.357-0.826-0.84-1.555-1.459-2.209c-0.605-0.646-1.293-1.224-2.076-1.726c-0.756-0.495-1.588-0.963-2.436-1.39
			c-1.045-0.508-2.035-1.071-2.969-1.704c-0.93-0.62-1.756-1.35-2.449-2.174c-0.701-0.826-1.266-1.802-1.699-2.93
			c-0.434-1.142-0.648-2.449-0.648-3.962c0-1.761,0.277-3.288,0.805-4.602c0.537-1.314,1.273-2.399,2.182-3.28
			c0.922-0.882,1.947-1.527,3.088-1.967c1.156-0.427,2.354-0.646,3.625-0.646c1.713,0,3.26,0.296,4.648,0.888
			c1.369,0.584,2.523,1.512,3.461,2.771l-2.313,2.627c-0.721-1.03-1.568-1.774-2.523-2.221c-0.969-0.447-2.021-0.682-3.17-0.682
			c-0.756,0-1.506,0.139-2.229,0.407c-0.742,0.274-1.389,0.693-1.967,1.265c-0.578,0.57-1.045,1.314-1.396,2.207
			c-0.365,0.896-0.543,1.955-0.543,3.165c0,1.079,0.164,2.021,0.48,2.799c0.33,0.791,0.77,1.492,1.322,2.111
			c0.563,0.604,1.209,1.135,1.938,1.609c0.729,0.468,1.5,0.895,2.291,1.293c0.998,0.503,1.986,1.072,2.979,1.719
			c0.99,0.646,1.883,1.404,2.668,2.27c0.791,0.854,1.416,1.864,1.885,3.013C52.635,21.428,52.861,22.769,52.861,24.295z"/>
		<path fill="#B3BAC2" d="M57.537,34.041V-4.047h3.77v38.088H57.537z"/>
		<path fill="#B3BAC2" d="M84.967,33.91c-1.498,0.564-3.248,0.84-5.254,0.84c-2.119,0-4.01-0.468-5.695-1.403
			c-1.693-0.935-3.109-2.249-4.25-3.976c-1.156-1.726-2.037-3.804-2.643-6.245c-0.619-2.435-0.922-5.165-0.922-8.177
			c0-2.842,0.303-5.476,0.895-7.91c0.592-2.441,1.443-4.547,2.553-6.321c1.113-1.774,2.482-3.177,4.092-4.174
			c1.609-0.998,3.439-1.506,5.488-1.506c1.855,0,3.563,0.385,5.117,1.128c1.541,0.757,2.82,1.939,3.865,3.549L85.791,2.19
			c-0.824-1.259-1.781-2.201-2.875-2.82c-1.1-0.632-2.268-0.936-3.521-0.936c-1.582,0-2.943,0.435-4.098,1.313
			c-1.143,0.882-2.105,2.07-2.875,3.584c-0.764,1.499-1.34,3.245-1.713,5.241c-0.377,1.995-0.564,4.112-0.564,6.376
			c0,2.372,0.188,4.559,0.592,6.561c0.385,2.009,0.998,3.741,1.803,5.192c0.811,1.458,1.814,2.586,3.02,3.411
			c1.195,0.826,2.578,1.239,4.168,1.239c1.141,0,2.186-0.139,3.088-0.427c0.914-0.29,1.678-0.709,2.289-1.245V16.765H79.67v-3.226
			h9.094v18.137C87.717,32.617,86.453,33.36,84.967,33.91z"/>
		<path fill="#B3BAC2" d="M109.768,34.041L96.514,2.349h-0.158v31.692h-3.549V-4.047h4.684l13.178,31.685h0.158V-4.047h3.439v38.088
			H109.768z"/>
	</g>
</g>
</svg>
